<svg width="29" height="29" viewBox="0 0 29 29" fill="none" xmlns="http://www.w3.org/2000/svg">
<path d="M10.6676 14.5C10.6676 12.383 12.3834 10.6664 14.5005 10.6664C16.6176 10.6664 18.3343 12.383 18.3343 14.5C18.3343 16.617 16.6176 18.3336 14.5005 18.3336C12.3834 18.3336 10.6676 16.617 10.6676 14.5ZM8.59511 14.5C8.59511 17.7614 11.2389 20.4052 14.5005 20.4052C17.762 20.4052 20.4057 17.7614 20.4057 14.5C20.4057 11.2386 17.762 8.59489 14.5005 8.59489C11.2389 8.59489 8.59511 11.2386 8.59511 14.5ZM19.2595 8.36075C19.2594 8.63368 19.3402 8.90053 19.4918 9.12752C19.6433 9.35453 19.8588 9.53149 20.111 9.63604C20.3631 9.74059 20.6405 9.76803 20.9082 9.7149C21.1759 9.66175 21.4219 9.53042 21.615 9.3375C21.8082 9.14457 21.9396 8.89873 21.9929 8.63106C22.0463 8.3634 22.0192 8.08591 21.9147 7.83371C21.8105 7.58151 21.6337 7.36591 21.4067 7.21418C21.1799 7.06246 20.9131 6.98141 20.6402 6.9813H20.6396C20.2737 6.98147 19.9229 7.12684 19.6642 7.38549C19.4053 7.64413 19.2598 7.99489 19.2595 8.36075ZM9.85427 23.8607C8.73302 23.8096 8.12359 23.6229 7.71859 23.4651C7.18166 23.2561 6.79856 23.0071 6.39576 22.6049C5.99297 22.2027 5.74364 21.82 5.53553 21.283C5.37765 20.8782 5.19088 20.2687 5.13991 19.1475C5.08416 17.9353 5.07303 17.5711 5.07303 14.5001C5.07303 11.429 5.08508 11.0659 5.13991 9.85271C5.19098 8.73151 5.37912 8.12311 5.53553 7.71712C5.74456 7.1802 5.99352 6.79712 6.39576 6.39434C6.798 5.99156 7.18074 5.74224 7.71859 5.53414C8.12341 5.37627 8.73302 5.18951 9.85427 5.13854C11.0665 5.08279 11.4307 5.07166 14.5005 5.07166C17.5702 5.07166 17.9348 5.08371 19.148 5.13854C20.2692 5.1896 20.8777 5.37774 21.2837 5.53414C21.8206 5.74224 22.2038 5.99212 22.6064 6.39434C23.0093 6.79656 23.2577 7.1802 23.4667 7.71712C23.6246 8.12192 23.8114 8.73151 23.8623 9.85271C23.9181 11.0659 23.9293 11.429 23.9293 14.5001C23.9293 17.5711 23.9181 17.9342 23.8623 19.1475C23.8112 20.2687 23.6235 20.8781 23.4667 21.283C23.2577 21.82 23.0088 22.203 22.6064 22.6049C22.2042 23.0068 21.8206 23.2561 21.2837 23.4651C20.8789 23.623 20.2692 23.8098 19.148 23.8607C17.9357 23.9165 17.5716 23.9275 14.5005 23.9275C11.4293 23.9275 11.0661 23.9165 9.85427 23.8607ZM9.75905 3.06964C8.53476 3.1254 7.69817 3.31952 6.96757 3.6038C6.21093 3.89737 5.5704 4.29122 4.93033 4.93025C4.29026 5.56928 3.89741 6.2108 3.60382 6.96741C3.31953 7.69844 3.1254 8.53454 3.06965 9.75878C3.01297 10.985 3 11.377 3 14.5C3 17.6231 3.01297 18.015 3.06965 19.2412C3.1254 20.4656 3.31953 21.3016 3.60382 22.0327C3.89741 22.7887 4.29035 23.4311 4.93033 24.0697C5.57031 24.7085 6.21093 25.1018 6.96757 25.3962C7.69955 25.6805 8.53476 25.8746 9.75905 25.9304C10.9859 25.986 11.3773 26 14.5005 26C17.6235 26 18.0156 25.987 19.2419 25.9304C20.4663 25.8746 21.3023 25.6805 22.0333 25.3962C22.7895 25.1018 23.4305 24.7088 24.0705 24.0697C24.7106 23.4307 25.1027 22.7887 25.3971 22.0327C25.6814 21.3016 25.8764 20.4654 25.9313 19.2412C25.987 18.0141 26 17.6231 26 14.5C26 11.377 25.987 10.985 25.9313 9.75878C25.8755 8.53444 25.6814 7.69798 25.3971 6.96741C25.1027 6.21126 24.7096 5.5703 24.0705 4.93025C23.4316 4.29021 22.7895 3.89737 22.0342 3.6038C21.3023 3.31952 20.4661 3.12448 19.2428 3.06964C18.0165 3.01389 17.6245 3 14.5014 3C11.3782 3 10.9859 3.01297 9.75905 3.06964Z" fill="white"/>
</svg>
