<svg width="24" height="26" viewBox="0 0 24 26" fill="none" xmlns="http://www.w3.org/2000/svg">
<path d="M23.5347 1.32951V24.666H19.7228V20.4324C18.8045 22.1332 17.6286 23.43 16.1953 24.3227C14.7592 25.2179 13.094 25.6839 11.3984 25.6654C8.10327 25.6654 5.44914 24.5134 3.43603 22.2095C1.42291 19.9056 0.415751 16.8562 0.414551 13.0612C0.414551 9.21859 1.3923 6.162 3.3478 3.89146C5.30329 1.62092 7.91961 0.488632 11.1968 0.494591C13.1174 0.494591 14.7854 0.93261 16.2007 1.80864C17.616 2.68468 18.7564 3.9892 19.622 5.7222V1.32951H23.5347ZM19.7228 13.215C19.7228 10.5797 19.0169 8.45817 17.6052 6.85032C16.1935 5.24247 14.3503 4.43913 12.0755 4.44033C9.71784 4.44033 7.87879 5.17989 6.55832 6.65902C5.23786 8.13815 4.57762 10.2043 4.57762 12.8574C4.57762 15.6798 5.24206 17.8562 6.57093 19.3866C7.8998 20.9169 9.78747 21.6821 12.2339 21.6821C14.5748 21.6821 16.4096 20.9384 17.7385 19.4509C19.0674 17.9634 19.7288 15.8848 19.7228 13.215Z" fill="#D25941"/>
</svg>
