<svg width="5" height="6" viewBox="0 0 5 6" fill="none" xmlns="http://www.w3.org/2000/svg">
<path d="M2.83964 0.474915C3.23608 0.477702 3.62549 0.579123 3.97225 0.769905C4.3355 0.963182 4.63448 1.25693 4.83295 1.61555C5.03352 1.96539 5.1396 2.36078 5.14086 2.76333C5.13998 3.16207 5.03514 3.5538 4.83656 3.90039C4.64004 4.25787 4.34448 4.55195 3.98486 4.74782C3.63541 4.94464 3.24052 5.04811 2.83875 5.04811C2.43699 5.04811 2.04209 4.94464 1.69264 4.74782C1.33284 4.55158 1.03679 4.25763 0.839139 3.90039C0.638043 3.55276 0.532227 3.15886 0.532227 2.75797C0.532227 2.35707 0.638043 1.96318 0.839139 1.61555C1.03776 1.25643 1.33749 0.962569 1.70165 0.769905C2.04984 0.57782 2.44132 0.476341 2.83964 0.474915ZM2.83964 0.853933C2.51045 0.856605 2.18723 0.941448 1.89972 1.10065C1.59601 1.26209 1.34586 1.50735 1.17946 1.80684C1.01133 2.09635 0.922819 2.42467 0.922819 2.75886C0.922819 3.09305 1.01133 3.42137 1.17946 3.71088C1.3466 4.00982 1.59656 4.2549 1.89972 4.41707C2.19021 4.58338 2.51963 4.67093 2.85495 4.67093C3.19028 4.67093 3.5197 4.58338 3.81019 4.41707C4.11408 4.25589 4.3643 4.01056 4.53045 3.71088C4.69609 3.42211 4.78356 3.09565 4.78434 2.76333C4.78296 2.4278 4.69426 2.09831 4.52685 1.80684C4.36045 1.50735 4.1103 1.26209 3.8066 1.10065C3.51079 0.937787 3.17789 0.852848 2.83964 0.853933ZM1.82949 4.03269V1.56549H2.6794C2.89245 1.5557 3.10573 1.57922 3.31142 1.63521C3.43928 1.67736 3.54904 1.76115 3.62293 1.873C3.69783 1.97751 3.73867 2.1023 3.73996 2.23056C3.74088 2.31787 3.72414 2.40447 3.69074 2.48523C3.65733 2.566 3.60795 2.63928 3.5455 2.70075C3.40889 2.83806 3.22477 2.9186 3.03052 2.92602C3.10877 2.95522 3.18038 2.99959 3.24119 3.05654C3.37929 3.20531 3.50009 3.36902 3.60132 3.54461L3.90383 4.02553H3.41405L3.19438 3.63758C3.09106 3.4234 2.94952 3.22957 2.77663 3.06547C2.68237 3.00228 2.5696 2.97208 2.45612 2.97966H2.22203V4.03269H1.82949ZM2.22924 2.64712H2.71361C2.87891 2.66347 3.04519 2.62782 3.18897 2.54521C3.22983 2.51238 3.26247 2.4706 3.28434 2.42314C3.30621 2.37568 3.31671 2.32384 3.31502 2.27168C3.31632 2.20186 3.29485 2.1335 3.2538 2.07681C3.21176 2.01792 3.15275 1.97304 3.08454 1.94808C2.95395 1.9121 2.8183 1.89761 2.68299 1.90518H2.22924V2.64712Z" fill="#D25941"/>
</svg>
