<svg width="24" height="36" viewBox="0 0 24 36" fill="none" xmlns="http://www.w3.org/2000/svg">
<path d="M0.206543 36.0348V1.3295H3.94286V5.71504C4.82878 4.0321 5.99919 2.7401 7.45411 1.83903C8.91168 0.937338 10.5986 0.468364 12.3158 0.487437C15.6254 0.487437 18.2837 1.63522 20.2909 3.93079C22.298 6.22635 23.3009 9.26983 23.2997 13.0612C23.2997 16.9205 22.3178 19.9855 20.3539 22.256C18.39 24.5265 15.7622 25.663 12.4707 25.6654C10.58 25.6654 8.93303 25.2274 7.52974 24.3513C6.12644 23.4753 4.98123 22.1702 4.09412 20.436V36.0348H0.206543ZM3.98788 13.0541C3.98788 15.6762 4.69853 17.7763 6.11983 19.3544C7.54114 20.9324 9.424 21.725 11.7684 21.7322C14.0564 21.7322 15.8571 21.0093 17.1703 19.5635C18.4836 18.1178 19.1396 16.1112 19.1384 13.5439C19.1384 10.6703 18.4824 8.41763 17.1703 6.78594C15.8583 5.15425 14.0318 4.33782 11.691 4.33663C9.29976 4.33663 7.41869 5.11135 6.04781 6.6608C4.67693 8.21025 3.99208 10.3437 3.99328 13.0612L3.98788 13.0541Z" fill="#D25941"/>
</svg>
