<svg width="24" height="36" viewBox="0 0 24 36" fill="none" xmlns="http://www.w3.org/2000/svg">
<path d="M23.5308 1.32951V24.2584C23.5308 26.7911 23.364 28.5939 23.0302 29.6666C22.6962 30.7347 22.1315 31.7176 21.3755 32.5467C20.2999 33.7246 18.9531 34.6263 17.4501 35.1748C15.9039 35.7481 14.1279 36.0348 12.122 36.0348C8.64075 36.0348 5.92779 35.2273 3.9831 33.6123C2.03841 31.9973 1.02286 29.7101 0.936427 26.7506H5.34979V27.0563C5.34979 28.8084 5.9434 30.1606 7.13062 31.1129C8.31784 32.0652 9.99844 32.542 12.1724 32.5432C13.7438 32.5432 15.0858 32.2839 16.1986 31.7655C17.2707 31.2818 18.1613 30.4739 18.7429 29.4574C19.1089 28.8379 19.363 28.1596 19.4938 27.4532C19.645 26.688 19.7201 25.5915 19.7189 24.1636V20.2304C18.833 21.899 17.6716 23.1785 16.2346 24.0689C14.7831 24.9649 13.1036 25.4296 11.3945 25.4079C8.09936 25.4079 5.44522 24.2685 3.43211 21.9896C1.419 19.7107 0.411845 16.684 0.410645 12.9093C0.410645 9.09523 1.38839 6.07321 3.34388 3.84319C5.29937 1.61318 7.9157 0.495187 11.1929 0.489227C13.0991 0.489227 14.7713 0.927246 16.2094 1.80328C17.6475 2.67932 18.7843 3.96715 19.6198 5.66678V1.32951H23.5308ZM19.7189 13.0612C19.7189 10.4391 19.0172 8.33063 17.6139 6.73589C16.2106 5.14115 14.3632 4.34199 12.0716 4.33842C9.71394 4.33842 7.87488 5.07798 6.55442 6.55711C5.23395 8.03624 4.57372 10.1024 4.57372 12.7555C4.57372 15.5791 5.23815 17.7555 6.56702 19.2846C7.89589 20.8138 9.78176 21.579 12.2246 21.5802C14.5654 21.5802 16.4003 20.8281 17.7292 19.324C19.058 17.8198 19.7213 15.7322 19.7189 13.0612Z" fill="#D25941"/>
</svg>
