<svg width="24" height="26" viewBox="0 0 24 26" fill="none" xmlns="http://www.w3.org/2000/svg">
<path d="M23.6273 1.32951V24.666H19.8154V20.4324C18.8958 22.1321 17.7212 23.4288 16.2915 24.3227C14.8554 25.2179 13.1902 25.6839 11.4946 25.6654C8.20066 25.6654 5.54653 24.5134 3.53222 22.2095C1.5179 19.9056 0.510742 16.8562 0.510742 13.0612C0.510742 9.21859 1.48909 6.162 3.44578 3.89146C5.40247 1.62092 8.0188 0.488632 11.2948 0.494591C13.2154 0.494591 14.8828 0.93261 16.2969 1.80864C17.711 2.68468 18.8514 3.9892 19.7181 5.7222V1.32951H23.6273ZM19.8154 13.215C19.8154 10.5797 19.1089 8.45817 17.696 6.85032C16.2831 5.24247 14.4399 4.43913 12.1663 4.44033C9.80983 4.44033 7.97079 5.17989 6.64912 6.65902C5.32745 8.13815 4.66722 10.2043 4.66842 12.8574C4.66842 15.6798 5.33284 17.8562 6.66171 19.3866C7.99058 20.9169 9.87586 21.6821 12.3175 21.6821C14.6583 21.6821 16.4932 20.9384 17.8221 19.4509C19.1509 17.9634 19.8154 15.8848 19.8154 13.215Z" fill="#D25941"/>
</svg>
